<svg width="28" height="40" viewBox="0 0 28 40" fill="none" xmlns="http://www.w3.org/2000/svg">
<path id="Icon" d="M14.0007 2.5H8.16732C6.62022 2.5 5.13649 3.11458 4.04253 4.20854C2.94857 5.30251 2.33398 6.78624 2.33398 8.33333C2.33398 9.88043 2.94857 11.3642 4.04253 12.4581C5.13649 13.5521 6.62022 14.1667 8.16732 14.1667M14.0007 2.5V14.1667M14.0007 2.5H19.834C20.6 2.5 21.3586 2.65088 22.0663 2.94404C22.774 3.23719 23.4171 3.66687 23.9588 4.20854C24.5004 4.75022 24.9301 5.39328 25.2233 6.10101C25.5164 6.80875 25.6673 7.56729 25.6673 8.33333C25.6673 9.09938 25.5164 9.85792 25.2233 10.5657C24.9301 11.2734 24.5004 11.9164 23.9588 12.4581C23.4171 12.9998 22.774 13.4295 22.0663 13.7226C21.3586 14.0158 20.6 14.1667 19.834 14.1667M14.0007 14.1667H8.16732M14.0007 14.1667H19.834M14.0007 14.1667V25.8333M8.16732 14.1667C6.62022 14.1667 5.13649 14.7812 4.04253 15.8752C2.94857 16.9692 2.33398 18.4529 2.33398 20C2.33398 21.5471 2.94857 23.0308 4.04253 24.1248C5.13649 25.2188 6.62022 25.8333 8.16732 25.8333M19.834 14.1667C19.0679 14.1667 18.3094 14.3175 17.6017 14.6107C16.8939 14.9039 16.2509 15.3335 15.7092 15.8752C15.1675 16.4169 14.7378 17.0599 14.4447 17.7677C14.1515 18.4754 14.0007 19.234 14.0007 20C14.0007 20.766 14.1515 21.5246 14.4447 22.2323C14.7378 22.9401 15.1675 23.5831 15.7092 24.1248C16.2509 24.6665 16.8939 25.0961 17.6017 25.3893C18.3094 25.6824 19.0679 25.8333 19.834 25.8333C20.6 25.8333 21.3586 25.6824 22.0663 25.3893C22.774 25.0961 23.4171 24.6665 23.9588 24.1248C24.5004 23.5831 24.9301 22.9401 25.2233 22.2323C25.5164 21.5246 25.6673 20.766 25.6673 20C25.6673 19.234 25.5164 18.4754 25.2233 17.7677C24.9301 17.0599 24.5004 16.4169 23.9588 15.8752C23.4171 15.3335 22.774 14.9039 22.0663 14.6107C21.3586 14.3175 20.6 14.1667 19.834 14.1667ZM8.16732 25.8333C6.62022 25.8333 5.13649 26.4479 4.04253 27.5419C2.94857 28.6358 2.33398 30.1196 2.33398 31.6667C2.33398 33.2138 2.94857 34.6975 4.04253 35.7915C5.13649 36.8854 6.62022 37.5 8.16732 37.5C9.71441 37.5 11.1981 36.8854 12.2921 35.7915C13.3861 34.6975 14.0007 33.2138 14.0007 31.6667V25.8333M8.16732 25.8333H14.0007" stroke="#E8E8E8" stroke-width="3.5" stroke-linecap="round" stroke-linejoin="round"/>
</svg>
