<svg width="28" height="39" viewBox="0 0 28 39" fill="none" xmlns="http://www.w3.org/2000/svg">
<path id="Icon" d="M13.6667 1.83984H7.83333C6.28624 1.83984 4.80251 2.45443 3.70854 3.54839C2.61458 4.64235 2 6.12608 2 7.67318C2 9.22027 2.61458 10.704 3.70854 11.798C4.80251 12.8919 6.28624 13.5065 7.83333 13.5065M13.6667 1.83984V13.5065M13.6667 1.83984H19.5C20.266 1.83984 21.0246 1.99073 21.7323 2.28388C22.4401 2.57703 23.0831 3.00671 23.6248 3.54839C24.1665 4.09006 24.5961 4.73312 24.8893 5.44086C25.1824 6.14859 25.3333 6.90713 25.3333 7.67318C25.3333 8.43922 25.1824 9.19776 24.8893 9.9055C24.5961 10.6132 24.1665 11.2563 23.6248 11.798C23.0831 12.3396 22.4401 12.7693 21.7323 13.0625C21.0246 13.3556 20.266 13.5065 19.5 13.5065M13.6667 13.5065H7.83333M13.6667 13.5065H19.5M13.6667 13.5065V25.1732M7.83333 13.5065C6.28624 13.5065 4.80251 14.1211 3.70854 15.2151C2.61458 16.309 2 17.7927 2 19.3398C2 20.8869 2.61458 22.3707 3.70854 23.4646C4.80251 24.5586 6.28624 25.1732 7.83333 25.1732M19.5 13.5065C18.734 13.5065 17.9754 13.6574 17.2677 13.9505C16.5599 14.2437 15.9169 14.6734 15.3752 15.2151C14.8335 15.7567 14.4039 16.3998 14.1107 17.1075C13.8175 17.8153 13.6667 18.5738 13.6667 19.3398C13.6667 20.1059 13.8175 20.8644 14.1107 21.5722C14.4039 22.2799 14.8335 22.923 15.3752 23.4646C15.9169 24.0063 16.5599 24.436 17.2677 24.7291C17.9754 25.0223 18.734 25.1732 19.5 25.1732C20.266 25.1732 21.0246 25.0223 21.7323 24.7291C22.4401 24.436 23.0831 24.0063 23.6248 23.4646C24.1665 22.923 24.5961 22.2799 24.8893 21.5722C25.1824 20.8644 25.3333 20.1059 25.3333 19.3398C25.3333 18.5738 25.1824 17.8153 24.8893 17.1075C24.5961 16.3998 24.1665 15.7567 23.6248 15.2151C23.0831 14.6734 22.4401 14.2437 21.7323 13.9505C21.0246 13.6574 20.266 13.5065 19.5 13.5065ZM7.83333 25.1732C6.28624 25.1732 4.80251 25.7878 3.70854 26.8817C2.61458 27.9757 2 29.4594 2 31.0065C2 32.5536 2.61458 34.0373 3.70854 35.1313C4.80251 36.2253 6.28624 36.8398 7.83333 36.8398C9.38043 36.8398 10.8642 36.2253 11.9581 35.1313C13.0521 34.0373 13.6667 32.5536 13.6667 31.0065V25.1732M7.83333 25.1732H13.6667" stroke="#F5F5F5" stroke-width="3.5" stroke-linecap="round" stroke-linejoin="round"/>
</svg>
