<svg width="28" height="40" viewBox="0 0 28 40" fill="none" xmlns="http://www.w3.org/2000/svg">
<path id="Icon" d="M14 2.5H8.16667C6.61957 2.5 5.13584 3.11458 4.04188 4.20854C2.94792 5.30251 2.33334 6.78624 2.33334 8.33333C2.33334 9.88043 2.94792 11.3642 4.04188 12.4581C5.13584 13.5521 6.61957 14.1667 8.16667 14.1667M14 2.5V14.1667M14 2.5H19.8333C20.5994 2.5 21.3579 2.65088 22.0657 2.94404C22.7734 3.23719 23.4165 3.66687 23.9581 4.20854C24.4998 4.75022 24.9295 5.39328 25.2226 6.10101C25.5158 6.80875 25.6667 7.56729 25.6667 8.33333C25.6667 9.09938 25.5158 9.85792 25.2226 10.5657C24.9295 11.2734 24.4998 11.9164 23.9581 12.4581C23.4165 12.9998 22.7734 13.4295 22.0657 13.7226C21.3579 14.0158 20.5994 14.1667 19.8333 14.1667M14 14.1667H8.16667M14 14.1667H19.8333M14 14.1667V25.8333M8.16667 14.1667C6.61957 14.1667 5.13584 14.7812 4.04188 15.8752C2.94792 16.9692 2.33334 18.4529 2.33334 20C2.33334 21.5471 2.94792 23.0308 4.04188 24.1248C5.13584 25.2188 6.61957 25.8333 8.16667 25.8333M19.8333 14.1667C19.0673 14.1667 18.3087 14.3175 17.601 14.6107C16.8933 14.9039 16.2502 15.3335 15.7085 15.8752C15.1669 16.4169 14.7372 17.0599 14.444 17.7677C14.1509 18.4754 14 19.234 14 20C14 20.766 14.1509 21.5246 14.444 22.2323C14.7372 22.9401 15.1669 23.5831 15.7085 24.1248C16.2502 24.6665 16.8933 25.0961 17.601 25.3893C18.3087 25.6824 19.0673 25.8333 19.8333 25.8333C20.5994 25.8333 21.3579 25.6824 22.0657 25.3893C22.7734 25.0961 23.4165 24.6665 23.9581 24.1248C24.4998 23.5831 24.9295 22.9401 25.2226 22.2323C25.5158 21.5246 25.6667 20.766 25.6667 20C25.6667 19.234 25.5158 18.4754 25.2226 17.7677C24.9295 17.0599 24.4998 16.4169 23.9581 15.8752C23.4165 15.3335 22.7734 14.9039 22.0657 14.6107C21.3579 14.3175 20.5994 14.1667 19.8333 14.1667ZM8.16667 25.8333C6.61957 25.8333 5.13584 26.4479 4.04188 27.5419C2.94792 28.6358 2.33334 30.1196 2.33334 31.6667C2.33334 33.2138 2.94792 34.6975 4.04188 35.7915C5.13584 36.8854 6.61957 37.5 8.16667 37.5C9.71377 37.5 11.1975 36.8854 12.2915 35.7915C13.3854 34.6975 14 33.2138 14 31.6667V25.8333M8.16667 25.8333H14" stroke="#03396C" stroke-width="3.5" stroke-linecap="round" stroke-linejoin="round"/>
</svg>
